<svg xmlns="http://www.w3.org/2000/svg" width="40" height="40" fill="none" viewBox="0 0 40 40"><g clip-path="url(#clip0_15_864)"><rect width="3" height="3" x="4" y="36" fill="#fff"/><rect width="6" height="2" x="2" y="35" fill="#fff"/><rect width="38" height="32" x="1" y="4" fill="#fff"/><rect width="36" height="1" x="2" y="3" fill="#000"/><rect width="1" height="1" x="1" y="4" fill="#000"/><rect width="1" height="1" x="38" y="4" fill="#000"/><rect width="1" height="1" x="38" y="35" fill="#000"/><rect width="1" height="1" x="6" y="38" fill="#000"/><rect width="1" height="1" x="7" y="37" fill="#000"/><rect width="30" height="1" x="8" y="36" fill="#000"/><rect width="1" height="1" x="4" y="37" fill="#000"/><rect width="1" height="1" x="1" y="35" fill="#000"/><rect width="30" height="1" x="1" y="5" fill="#000" transform="rotate(90 1 5)"/><rect width="30" height="1" x="40" y="5" fill="#000" transform="rotate(90 40 5)"/><rect width="2" height="1" x="2" y="36" fill="#000"/><rect width="1" height="1" x="3" y="39" fill="#000"/><rect width="3" height="1" x="3" y="39" fill="#000"/><rect width="2" height="1" x="3" y="40" fill="#000" transform="rotate(-90 3 40)"/></g><defs><clipPath id="clip0_15_864"><rect width="40" height="40" fill="#fff"/></clipPath></defs></svg>