<svg xmlns="http://www.w3.org/2000/svg" width="40" height="40" fill="none" viewBox="0 0 40 40"><rect width="3" height="3" fill="#fff" transform="matrix(-1 0 0 1 36 36)"/><rect width="6" height="2" fill="#fff" transform="matrix(-1 0 0 1 38 35)"/><rect width="38" height="32" fill="#fff" transform="matrix(-1 0 0 1 39 4)"/><rect width="36" height="1" fill="#000" transform="matrix(-1 0 0 1 38 3)"/><rect width="1" height="1" fill="#000" transform="matrix(-1 0 0 1 39 4)"/><rect width="1" height="1" fill="#000" transform="matrix(-1 0 0 1 2 4)"/><rect width="1" height="1" fill="#000" transform="matrix(-1 0 0 1 2 35)"/><rect width="1" height="1" fill="#000" transform="matrix(-1 0 0 1 34 38)"/><rect width="1" height="1" fill="#000" transform="matrix(-1 0 0 1 33 37)"/><rect width="30" height="1" fill="#000" transform="matrix(-1 0 0 1 32 36)"/><rect width="1" height="1" fill="#000" transform="matrix(-1 0 0 1 36 37)"/><rect width="1" height="1" fill="#000" transform="matrix(-1 0 0 1 39 35)"/><rect width="30" height="1" fill="#000" transform="matrix(4.37114e-08 1 1 -4.37114e-08 39 5)"/><rect width="30" height="1" fill="#000" transform="matrix(4.37114e-08 1 1 -4.37114e-08 0 5)"/><rect width="2" height="1" fill="#000" transform="matrix(-1 0 0 1 38 36)"/><rect width="1" height="1" fill="#000" transform="matrix(-1 0 0 1 37 39)"/><rect width="3" height="1" fill="#000" transform="matrix(-1 0 0 1 37 39)"/><rect width="2" height="1" fill="#000" transform="matrix(-1.19249e-08 -1 -1 1.19249e-08 37 40)"/></svg>