<svg xmlns="http://www.w3.org/2000/svg" width="50" height="50" fill="none" viewBox="0 0 50 50"><g clip-path="url(#clip0_15_980)"><rect width="42" height="46" x="4" y="2" fill="#B86F50"/><rect width="46" height="42" x="2" y="4" fill="#B86F50"/><rect width="44" height="44" x="3" y="3" fill="#B86F50"/><rect width="42" height="42" x="4" y="4" fill="#743F39"/><rect width="1" height="1" x="2" y="46" fill="#181425"/><rect width="1" height="1" fill="#181425" transform="matrix(1 0 0 -1 46 48)"/><rect width="1" height="1" fill="#181425" transform="matrix(1 0 0 -1 2 4)"/><rect width="1" height="1" x="46" y="2" fill="#181425"/><rect width="1" height="42" x="1" y="4" fill="#181425"/><rect width="1" height="42" x="48" y="4" fill="#181425"/><rect width="1" height="42" x="46" y="1" fill="#181425" transform="rotate(90 46 1)"/><rect width="1" height="42" x="46" y="48" fill="#181425" transform="rotate(90 46 48)"/><rect width="1" height="1" x="3" y="47" fill="#181425"/><rect width="1" height="1" fill="#181425" transform="matrix(1 0 0 -1 47 47)"/><rect width="1" height="1" fill="#181425" transform="matrix(1 0 0 -1 3 3)"/><rect width="1" height="1" x="47" y="3" fill="#181425"/><rect width="1" height="1" x="4" y="4" fill="#181425"/><rect width="1" height="1" x="4" y="45" fill="#181425"/><rect width="1" height="1" x="45" y="4" fill="#181425"/><rect width="1" height="1" x="45" y="45" fill="#181425"/><rect width="1" height="40" x="3" y="5" fill="#181425"/><rect width="1" height="40" x="46" y="5" fill="#181425"/><rect width="1" height="40" x="45" y="46" fill="#181425" transform="rotate(90 45 46)"/><rect width="1" height="40" x="45" y="3" fill="#181425" transform="rotate(90 45 3)"/><rect width="3" height="5" x="10" y="45" fill="#181425"/><rect width="1" height="3" x="11" y="46" fill="#B86F50"/><rect width="3" height="5" x="10" fill="#181425"/><rect width="1" height="3" x="11" y="1" fill="#B86F50"/><rect width="3" height="5" x="37" fill="#181425"/><rect width="1" height="3" x="38" y="1" fill="#B86F50"/><rect width="3" height="5" x="37" y="45" fill="#181425"/><rect width="1" height="3" x="38" y="46" fill="#B86F50"/><rect width="3" height="5" x="5" y="10" fill="#181425" transform="rotate(90 5 10)"/><rect width="1" height="3" x="4" y="11" fill="#B86F50" transform="rotate(90 4 11)"/><rect width="3" height="5" x="50" y="10" fill="#181425" transform="rotate(90 50 10)"/><rect width="1" height="3" x="49" y="11" fill="#B86F50" transform="rotate(90 49 11)"/><rect width="3" height="5" x="50" y="37" fill="#181425" transform="rotate(90 50 37)"/><rect width="1" height="3" x="49" y="38" fill="#B86F50" transform="rotate(90 49 38)"/><rect width="3" height="5" x="5" y="37" fill="#181425" transform="rotate(90 5 37)"/><rect width="1" height="3" x="4" y="38" fill="#B86F50" transform="rotate(90 4 38)"/></g><defs><clipPath id="clip0_15_980"><rect width="50" height="50" fill="#fff"/></clipPath></defs></svg>